<?xml version="1.0" encoding="utf-8"?>
<!-- Generator: Adobe Illustrator 18.1.0, SVG Export Plug-In . SVG Version: 6.00 Build 0)  -->
<svg version="1.1" id="Layer_1" xmlns="http://www.w3.org/2000/svg" xmlns:xlink="http://www.w3.org/1999/xlink" x="0px" y="0px"
	 viewBox="0 0 242.4 49.6" enable-background="new 0 0 242.4 49.6" xml:space="preserve">
<g>
	<path fill="#1D1D1B" d="M37,19.2c-2,1.6-4.6,2.5-8,2.5c-3.3,0-6-0.8-8-2.4c-2-1.6-3-3.8-3-6.4c0-2.6,1-4.7,3.1-6.3
		C23.1,4.8,25.8,4,29,4c3,0,5.5,0.7,7.5,2.2c2.3,1.7,3.5,3.9,3.5,6.7C40,15.5,39,17.6,37,19.2 M39.3,3.6C36.5,1.5,33.1,0.4,29,0.4
		c-4,0-7.5,1.1-10.3,3.2C15.6,6,14,9.1,14,12.8c0,3.8,1.6,6.9,4.7,9.3c2.8,2.1,6.2,3.1,10.3,3.1c4.1,0,7.5-1,10.3-3.1
		c3.1-2.4,4.7-5.5,4.7-9.3C44,9.1,42.4,6,39.3,3.6"/>
	<path fill="#1D1D1B" d="M37,19.2l0.2,0.3c-2.1,1.7-4.8,2.5-8.2,2.5c-3.4,0-6.2-0.8-8.3-2.5c-2.1-1.7-3.2-4-3.1-6.7
		c0-2.7,1.1-4.9,3.2-6.6C23,4.4,25.7,3.6,29,3.6c3,0,5.6,0.8,7.7,2.3c2.4,1.8,3.7,4.1,3.6,7c0,2.7-1.1,5-3.1,6.7L37,19.2l-0.2-0.3
		c1.9-1.6,2.8-3.6,2.8-6.1c0-2.6-1.1-4.7-3.3-6.3c-1.9-1.4-4.3-2.1-7.2-2.1c-3.2,0-5.7,0.8-7.7,2.4c-2,1.6-2.9,3.6-2.9,6
		c0,2.6,0.9,4.5,2.9,6.1c1.9,1.6,4.5,2.4,7.8,2.4c3.3,0,5.8-0.8,7.7-2.4L37,19.2z M39.3,3.6L39,3.9c-2.7-2.1-6-3.1-10-3.1
		c-4,0-7.3,1-10,3.1l0,0c-3.1,2.4-4.6,5.3-4.6,8.9c0,3.7,1.5,6.6,4.6,9l0,0c2.7,2,6,3.1,10.1,3.1c4,0,7.4-1,10-3l0,0
		c3.1-2.3,4.6-5.3,4.6-9c0-3.6-1.5-6.6-4.6-8.9l0,0L39.3,3.6l0.2-0.3c3.2,2.5,4.9,5.7,4.9,9.5c0,3.9-1.6,7.2-4.9,9.6l0,0
		c-2.8,2.1-6.3,3.2-10.5,3.2c-4.2,0-7.7-1.1-10.6-3.2l0,0c-3.2-2.4-4.9-5.7-4.9-9.6c0-3.9,1.7-7.1,4.9-9.5l0,0C21.4,1.1,24.9,0,29,0
		c4.1,0,7.6,1.1,10.5,3.2l0,0L39.3,3.6z"/>
	<path fill="#1D1D1B" d="M57.3,12.2V4.7H71c3.2,0,4.7,1.3,4.7,3.9c0,2.4-1.5,3.6-4.5,3.6H57.3z M53.4,1.2v23.4h3.9v-8.9h13.9
		c2.8,0,4.9-0.6,6.3-1.8c1.5-1.2,2.2-3,2.2-5.3c0-2.2-0.7-4-2.1-5.3c-1.4-1.3-3.3-2-5.7-2H53.4z"/>
	<path fill="#1D1D1B" d="M57.3,12.2h-0.4V4.3H71c1.6,0,2.9,0.3,3.8,1.1c0.9,0.7,1.3,1.8,1.3,3.2c0,1.3-0.4,2.3-1.3,3
		c-0.9,0.7-2.1,1-3.6,1H56.9v-0.4H57.3v-0.4h14c1.4,0,2.5-0.3,3.1-0.8c0.6-0.5,1-1.3,1-2.4c0-1.2-0.4-2-1-2.6C73.6,5.4,72.5,5,71,5
		H57.6v7.1H57.3v-0.4V12.2z M53.4,1.2h0.4v23h3.1v-8.9h14.3c2.7,0,4.7-0.6,6.1-1.7c1.4-1.1,2-2.8,2-5c0-2.1-0.7-3.8-2-5
		c-1.3-1.2-3.1-1.9-5.4-1.9H53.4V1.2h0.4H53.4V0.8h18.5c2.5,0,4.5,0.7,6,2.1c1.5,1.4,2.2,3.3,2.2,5.6c0,2.4-0.8,4.3-2.3,5.6
		C76.2,15.4,74,16,71.2,16H57.6v8.9H53V0.8h0.4V1.2z"/>
	<polygon fill="#1D1D1B" points="113.5,1.2 109.6,1.2 109.6,10.7 90.9,10.7 90.9,1.2 87,1.2 87,24.6 90.9,24.6 90.9,14.2 
		109.6,14.2 109.6,24.6 113.5,24.6 	"/>
	<polygon fill="#1D1D1B" points="113.5,1.2 113.5,1.6 110,1.6 110,11.1 90.5,11.1 90.5,1.6 87.4,1.6 87.4,24.2 90.5,24.2 90.5,13.8 
		110,13.8 110,24.2 113.1,24.2 113.1,1.2 113.5,1.2 113.5,1.6 113.5,1.2 113.9,1.2 113.9,24.9 109.2,24.9 109.2,14.5 91.3,14.5 
		91.3,24.9 86.6,24.9 86.6,0.8 91.3,0.8 91.3,10.3 109.2,10.3 109.2,0.8 113.9,0.8 113.9,1.2 	"/>
	<polygon fill="#1D1D1B" points="148.6,21.1 128,21.1 128,14.2 141.7,14.2 141.7,10.7 128,10.7 128,4.7 147.7,4.7 147.7,1.2 
		124.1,1.2 124.1,24.6 148.6,24.6 	"/>
	<polygon fill="#1D1D1B" points="148.6,21.1 148.6,21.5 127.6,21.5 127.6,13.8 141.3,13.8 141.3,11.1 127.6,11.1 127.6,4.3 
		147.3,4.3 147.3,1.6 124.5,1.6 124.5,24.2 148.2,24.2 148.2,21.1 148.6,21.1 148.6,21.5 148.6,21.1 149,21.1 149,24.9 123.7,24.9 
		123.7,0.8 148.1,0.8 148.1,5 128.4,5 128.4,10.3 142.1,10.3 142.1,14.5 128.4,14.5 128.4,20.7 149,20.7 149,21.1 	"/>
	<polygon fill="#1D1D1B" points="179.2,21.1 161.1,21.1 161.1,1.2 157.2,1.2 157.2,24.6 179.2,24.6 	"/>
	<polygon fill="#1D1D1B" points="179.2,21.1 179.2,21.5 160.7,21.5 160.7,1.6 157.6,1.6 157.6,24.2 178.8,24.2 178.8,21.1 
		179.2,21.1 179.2,21.5 179.2,21.1 179.5,21.1 179.5,24.9 156.8,24.9 156.8,0.8 161.5,0.8 161.5,20.7 179.5,20.7 179.5,21.1 	"/>
	<rect x="186.4" y="1.2" fill="#1D1D1B" width="3.9" height="23.4"/>
	<polygon fill="#1D1D1B" points="190.3,1.2 190.3,1.6 186.8,1.6 186.8,24.2 189.9,24.2 189.9,1.2 190.3,1.2 190.3,1.6 190.3,1.2 
		190.7,1.2 190.7,24.9 186,24.9 186,0.8 190.7,0.8 190.7,1.2 	"/>
	<path fill="#1D1D1B" d="M206.3,15.8l6-11.3l6,11.3H206.3z M214.7,1.2h-4.9l-12.4,23.4h4.2l2.7-5.2h15.8l2.7,5.2h4.2L214.7,1.2z"/>
	<path fill="#1D1D1B" d="M206.3,15.8l-0.3-0.2l6.4-12l6.6,12.5h-13.3l0.3-0.6L206.3,15.8v-0.4h11.3l-5.3-10.1L206.6,16L206.3,15.8
		v-0.4V15.8z M214.7,1.2v0.4h-4.6l-12,22.6h3.4l2.7-5.2h16.2l2.7,5.2h3.4L214.4,1.4L214.7,1.2v0.4V1.2l0.3-0.2l12.7,24h-5.1
		l-2.7-5.2h-15.3l-2.7,5.2h-5.1l12.8-24.2h5.3l0.1,0.2L214.7,1.2z"/>
	<path fill="#881812" d="M38.4,42.7v-4.2h7.6c1.8,0,2.7,0.7,2.7,2.2c0,1.3-0.8,2-2.5,2H38.4z M47.5,44.5c1-0.2,1.8-0.6,2.4-1.2
		c0.6-0.7,1-1.6,1-2.7c0-1.3-0.4-2.3-1.2-3c-0.8-0.7-1.8-1.1-3.2-1.1H36.2v13h2.2v-5h6.6l3.5,5h2.5L47.5,44.5z M22.2,44.7l3.4-6.3
		l3.3,6.3H22.2z M26.9,36.6h-2.7l-6.9,13h2.4l1.5-2.9h8.8l1.5,2.9h2.4L26.9,36.6z M2.3,47.6v-3.7h8.6c1.6,0,2.4,0.6,2.4,1.9
		c0,1.2-0.9,1.8-2.7,1.8H2.3z M2.3,42v-3.5h8.5c0.6,0,1.1,0.2,1.5,0.5c0.4,0.3,0.5,0.7,0.5,1.3c0,0.5-0.2,0.9-0.6,1.3
		c-0.4,0.3-0.9,0.5-1.5,0.5H2.3z M14.9,40.1c0-1.1-0.4-1.9-1.1-2.6c-0.8-0.6-1.8-1-3.1-1H0.2v13h10.4c3.3,0,4.9-1.1,4.9-3.4
		c0-1.7-0.7-2.8-2.2-3.3C14.4,42.2,14.9,41.3,14.9,40.1"/>
	<rect x="58.6" y="42.9" fill="#881812" width="7.4" height="2"/>
	<path fill="#881812" d="M138.1,42.7v-4.2h7.6c1.8,0,2.7,0.7,2.7,2.2c0,1.3-0.8,2-2.5,2H138.1z M147.2,44.5c1-0.2,1.8-0.6,2.4-1.2
		c0.6-0.7,1-1.6,1-2.7c0-1.3-0.4-2.3-1.2-3c-0.8-0.7-1.8-1.1-3.2-1.1H136v13h2.2v-5h6.6l3.5,5h2.5L147.2,44.5z M132.8,47.6h-11.5
		v-3.8h7.6v-1.9h-7.6v-3.3h10.9v-1.9h-13.1v13h13.6V47.6z M114.8,36.6h-2.2v10.7l-9.9-10.7h-2.7v13h2.2V38.9l9.9,10.7h2.7V36.6z
		 M95.8,36.6h-2.2v13h2.2V36.6z M76.6,47.6v-9.1h6.2c1.4,0,2.6,0.4,3.5,1.3c0.9,0.9,1.3,2,1.3,3.4c0,1.3-0.4,2.4-1.2,3.2
		c-0.8,0.8-1.9,1.3-3.2,1.3H76.6z M74.5,36.6v13h8.6c1.9,0,3.5-0.6,4.8-1.7c1.4-1.2,2.1-2.8,2.1-4.6c0-2-0.7-3.6-2-4.8
		c-1.3-1.2-3.1-1.8-5.4-1.8H74.5z"/>
	<rect x="158.5" y="42.9" fill="#881812" width="7.4" height="2"/>
	<path fill="#881812" d="M229.1,47.6v-3.7h8.6c1.6,0,2.4,0.6,2.4,1.9c0,1.2-0.9,1.8-2.7,1.8H229.1z M229.1,42v-3.5h8.5
		c0.6,0,1.1,0.2,1.5,0.5c0.4,0.3,0.5,0.7,0.5,1.3c0,0.5-0.2,0.9-0.6,1.3c-0.4,0.3-0.9,0.5-1.5,0.5H229.1z M241.7,40.1
		c0-1.1-0.4-1.9-1.1-2.6c-0.8-0.6-1.8-1-3.1-1h-10.5v13h10.4c3.3,0,4.9-1.1,4.9-3.4c0-1.7-0.7-2.8-2.2-3.3
		C241.1,42.2,241.7,41.3,241.7,40.1 M222.6,36.6h-2.2v8.3c0,1-0.4,1.8-1.3,2.3c-0.9,0.5-2.2,0.8-3.9,0.8c-1.7,0-3-0.3-3.9-0.8
		c-0.9-0.5-1.3-1.3-1.3-2.3v-8.3h-2.2v8.8c0,1.3,0.7,2.4,2,3.3c1.4,0.9,3.2,1.3,5.4,1.3c2.2,0,4-0.4,5.4-1.3c1.3-0.8,2-1.9,2-3.3
		V36.6z M205.5,47.6h-10V36.6h-2.2v13h12.2V47.6z M182.2,36.2c-2.3,0-4.2,0.6-5.7,1.7c-1.8,1.3-2.6,3-2.6,5.1c0,2.1,0.9,3.9,2.6,5.2
		c1.5,1.1,3.4,1.7,5.7,1.7c1.6,0,3-0.2,4.2-0.7c1.2-0.5,2.2-1.3,3.2-2.4l-1.8-1c-1.3,1.4-3.1,2.1-5.4,2.1c-1.9,0-3.4-0.5-4.5-1.4
		c-1.1-0.9-1.7-2.1-1.7-3.6c0-1.4,0.6-2.6,1.7-3.5c1.1-0.9,2.6-1.4,4.4-1.4c2.4,0,4.2,0.7,5.5,2.1l2-0.7
		C187.9,37.3,185.4,36.2,182.2,36.2"/>
</g>
</svg>
